<svg xmlns="http://www.w3.org/2000/svg" width="553" height="562" viewBox="0 0 553 562"><path fill="#32332F" fill-rule="evenodd" d="M513.834 420.318c-12.611-1.27-2.88-10.61-2.88-10.61s-5.782 4.786-53.594 20.988c-41.725 14.126-50.273 3.862-38.082-8.726 15.97-16.451 33.37-36.727 33.37-36.727s-29.973 27.983-102.645 54.447c-49.397 17.989-72.368 13.953-40.487-9.917 54.529-40.783 83.243-82.045 83.243-82.045-43.692 42.32-84.33 58.733-137.675 72.436-40.085 10.301-106.214 5.535-41.803-22.044 97.819-41.897 155.953-90.52 155.953-90.52-33.865 25.348-104.802 44.567-168.277 49.2-56.17 4.093-97.914-20.085-51.419-30.827 125.922-29.117 203.25-65.94 203.25-65.94s-54.223 24.753-173.334 20.486c-87.344-3.132-130.901-53.159-71.852-51.064 111.289 3.94 185.43-9.437 185.43-9.437-23.448.846-60.862-2.094-114.665-27.444-28.619-13.472-49.702-27.329-53.078-41.359-2.824-11.839 1.583-19.373 32.644-7.956 131.512 48.297 369.982 22.37 393.067 19.699V2H127.94C58.684 2 2 59.1 2 128.864v304.273C2 502.9 58.683 560 127.94 560H551V410.708c-19.308 7.284-34.59 9.878-37.166 9.61"/></svg>