<svg xmlns="http://www.w3.org/2000/svg" width="1977" height="562" viewBox="0 0 1977 562"><g fill="#393436" fill-rule="evenodd" transform="translate(8 138)"><path d="M1359 9L1374.883 9 1374.883 259.256 1471 259.256 1471 274 1359 274z"/><path d="M1624.442 167.239l-29.874-107.507c-3.42-11.36-7.205-31.801-7.205-31.801h-.746s-3.802 20.079-7.186 31.8L1549.52 167.24h74.922zM1578.284 9h17.03L1671 274h-16.666l-26.108-91.999h-82.872L1519.646 274H1503l75.284-265zM121.614 0c23.79 0 49.848 6.813 67.971 22.716l-25.677 53.432c-7.554-9.09-24.533-17.434-39.28-17.434-40.404 0-60.797 36.38-60.797 78.827 0 44.322 21.9 83.726 60.053 83.726 18.505 0 31.725-8.726 43.438-18.2L193 255.735C176.002 268.613 155.61 280 118.6 280 43.438 280 0 220.885 0 140.565 0 58.714 45.327 0 121.614 0"/><path d="M299.808 220.517c32.26 0 46.674-34.105 46.674-81.838 0-47.368-14.414-79.196-46.674-79.196s-47.057 32.211-47.057 78.813c0 48.499 14.798 82.22 47.057 82.22m0-220.516C371.151 0 411 59.1 411 138.68 411 218.602 371.151 280 299.808 280 228.467 280 189 219.005 189 138.296 189 59.483 228.467 0 299.808 0M432 0h65.373l46.094 125.075c7.558 18.188 13.227 45.126 13.227 45.126h1.508s-3.397-28.45-3.397-45.49V0H613v271h-64.99l-46.477-124.673c-7.176-18.59-12.864-45.49-12.864-45.49h-1.508s3.397 28.412 3.397 45.49V271H432V0zm293.446 216.053c31.73 0 48.731-28.048 48.731-81.118 0-52.668-18.127-79.969-48.731-79.969h-15.493v161.087h15.493zM648 0h78.953C796.081 0 838 49.663 838 134.935 838 220.227 796.081 271 726.953 271H648V0zm317.808 220.517c32.259 0 46.674-34.105 46.674-81.838 0-47.368-14.415-79.196-46.674-79.196-32.26 0-47.057 32.211-47.057 78.813 0 48.499 14.798 82.22 47.057 82.22m0-220.516C1037.15 0 1077 59.1 1077 138.68c0 79.923-39.85 141.32-111.192 141.32C894.466 280 855 219.005 855 138.296 855 59.483 894.466 0 965.808 0m205.97 125.075c16.286 0 29.531-12.884 29.531-35.246 0-12.884-4.167-23.491-10.971-29.177-4.931-3.79-11.354-5.686-16.285-5.686h-13.992v70.11h11.718zM1098 0h85.514c10.608 0 24.217 2.642 35.188 7.581 26.874 12.139 45.414 39.42 45.414 75.796 0 32.988-15.5 61.801-37.08 76.198v.766s3.785 4.537 9.461 16.273L1280 271h-68.102l-37.08-91.725h-14.757V271H1098V0zm647.78 259.29c42.418 0 60.588-21.956 60.588-56.42 0-38.995-22.74-60.97-48.1-60.97h-50.337v117.39h37.849zm10.613-132.155c21.956 0 41.272-20.445 41.272-52.25 0-31.804-19.699-51.102-48.1-51.102h-41.634v103.352h48.462zM1692 9h58.312c35.974 0 64.012 25.016 64.012 65.885 0 30.294-15.55 48.846-30.294 58.313v.765c18.914 6.808 38.632 30.677 38.632 68.162 0 43.91-26.91 71.91-76.118 71.91H1692V9zm152.339 228.035c13.635 12.49 31.805 21.573 51.484 21.573 27.654 0 48.481-19.68 48.481-51.867 0-71.183-102.988-61.716-102.988-139.727 0-37.084 24.232-67.014 67.78-67.014 18.168 0 34.826 5.316 49.974 15.53l-6.446 14.764c-10.595-8.32-29.147-14.764-44.294-14.764-33.315 0-50.356 24.614-50.356 51.484 0 66.65 102.988 57.203 102.988 138.217 0 39.76-24.614 68.906-65.885 68.906-21.592 0-42.4-8.318-59.077-23.868l8.339-13.234z"/></g></svg>